<?xml version="1.0" encoding="UTF-8"?>
<!DOCTYPE svg PUBLIC "-//W3C//DTD SVG 1.1//EN" "http://www.w3.org/Graphics/SVG/1.1/DTD/svg11.dtd">
<!-- Creator: CorelDRAW -->
<svg xmlns="http://www.w3.org/2000/svg" xml:space="preserve" width="38.3608mm" height="10.0616mm" style="shape-rendering:geometricPrecision; text-rendering:geometricPrecision; image-rendering:optimizeQuality; fill-rule:evenodd; clip-rule:evenodd"
viewBox="0 0 16.5118 4.33085"
 xmlns:xlink="http://www.w3.org/1999/xlink">
 <defs>
  <style type="text/css">
   <![CDATA[
    .str0 {stroke:#969594;stroke-width:0.0559563;stroke-linecap:round}
    .fil2 {fill:none}
    .fil0 {fill:#CFC8E2}
    .fil1 {fill:#605D5C;fill-rule:nonzero}
   ]]>
  </style>
 </defs>
 <g id="Layer_x0020_1">
  <metadata id="CorelCorpID_0Corel-Layer"/>
  <g id="_150097976">
   <path id="_149462856" class="fil0" d="M8.67181 1.1171c-0.206522,0 -0.401895,0.0469172 -0.57635,0.130895l0 -0.806459c0,-0.243797 -0.197698,-0.441538 -0.441538,-0.441538 -0.243797,0 -0.441538,0.197741 -0.441538,0.441538l0 2.88674 0 8.60866e-005c4.30433e-005,0.243797 0.197741,0.441495 0.441538,0.441495 0.141871,0 0.268246,-0.0671476 0.348995,-0.171183 0.196622,0.114581 0.424967,0.180395 0.668893,0.180395 0.734965,0 1.33094,-0.596021 1.33094,-1.33099 0,-0.735008 -0.595978,-1.33099 -1.33094,-1.33099zm-0.57635 1.37743l0 -0.0930596c0.0237169,-0.297688 0.27255,-0.531714 0.57635,-0.531714 0.319467,0 0.578287,0.258906 0.578287,0.57833 0,0.319381 -0.258819,0.578287 -0.578287,0.578287 -0.3038,0 -0.552633,-0.234199 -0.57635,-0.531843z"/>
   <path id="_149762288" class="fil0" d="M6.96226 2.44809l0 0.880193 0 8.60866e-005c-4.30433e-005,0.243797 -0.197741,0.441495 -0.441538,0.441495 -0.141871,0 -0.268246,-0.0671476 -0.348995,-0.171183 -0.196622,0.114581 -0.424967,0.180395 -0.668893,0.180395 -0.734965,0 -1.33099,-0.596021 -1.33099,-1.33099 0,-0.734965 0.596021,-1.33099 1.33099,-1.33099 0.243926,0 0.472271,0.0658132 0.668893,0.180395 0.0807492,-0.104036 0.207124,-0.171183 0.348995,-0.171183 0.243797,0 0.441495,0.197698 0.441538,0.441495l0 8.60866e-005 0 0.880193zm-2.03771 0c0,0.319381 0.258819,0.578287 0.578287,0.578287 0.3038,0 0.552633,-0.234199 0.576307,-0.531843l0 -0.0464437 0 -0.0464437c-0.0236738,-0.297644 -0.272507,-0.531843 -0.576307,-0.531843 -0.319467,0 -0.578287,0.258906 -0.578287,0.578287z"/>
   <path id="_149543272" class="fil0" d="M3.92176 2.22637l0 1.63319 -8.60866e-005 0 8.60866e-005 0.00731736c0,0.239923 -0.194642,0.434522 -0.434608,0.434522 -0.239966,0 -0.434522,-0.194599 -0.434522,-0.434522l0.00012913 -0.00731736 -0.00421824 0 0 -1.63392c0,-0.180954 -0.146692,-0.327689 -0.327775,-0.327689 -0.174325,0 -0.316842,0.136404 -0.327,0.308233l0.00167869 0.0201873 0 1.62958 0 0.00077478 0 0.00064565 0 0.00077478 0 0.00064565 0 0.00077478 0 0.00434737 0 0.00064565 0 0.00077478 0 0.00077478 0 0.00077478c0,0.23988 -0.194642,0.434522 -0.434608,0.434522 -0.239966,0 -0.434522,-0.194599 -0.434522,-0.434522l0.00012913 -0.00731736 -0.00012913 0 -0.00408911 0 0 -1.63392c0,-0.180954 -0.146692,-0.327689 -0.327775,-0.327689 -0.180911,0 -0.327646,0.146735 -0.327646,0.327689l0 1.59549c0.00154956,0.0149791 0.00232434,-0.0819114 0.00232434,0.045755 0,0.127666 -0.194642,0.434522 -0.434608,0.434522 -0.239966,0 -0.434522,-0.194599 -0.434522,-0.434522l0.00012913 -0.00731736 -0.00012913 0 0 -1.54302c0,-0.662307 0.537137,-1.19944 1.19949,-1.19944 0.289854,0 0.555818,0.103003 0.763158,0.274272 0.207426,-0.171269 0.473218,-0.274272 0.763158,-0.274272 0.631919,0 1.14986,0.489058 1.19596,1.10927z"/>
  </g>
  <path class="fil1" d="M11.4498 1.90734c0.254558,0 0.459875,0.0730015 0.615864,0.218402 0.155989,0.146003 0.233983,0.335049 0.233983,0.567784 0,0.235275 -0.0767462,0.423073 -0.229636,0.564083 -0.15289,0.140407 -0.359412,0.210912 -0.620211,0.210912l-0.693256 0 0 -1.56118 0.693256 0zm0.00374477 0.2246l-0.451783 0 0 1.11194 0.451783 0c0.185301,0 0.330702,-0.0498872 0.43676,-0.149102 0.106102,-0.0992148 0.159131,-0.234629 0.159131,-0.404994 0,-0.164727 -0.0549233,-0.29885 -0.164727,-0.402455 -0.109847,-0.103562 -0.253353,-0.155386 -0.431165,-0.155386zm1.23173 1.33658l0 -1.56118 1.46446 0 0 0.228345 -1.21924 0 0 0.390015 0.800563 0 0 0.224643 -0.800563 0 0 0.493535 1.28725 0 0 0.224643 -1.53247 0zm2.56142 0l-0.126074 0 -0.784335 -1.56118 0.259594 0 0.587154 1.16807 0.577168 -1.16807 0.268935 0 -0.782441 1.56118z"/>
  <line class="fil2 str0" x1="4.61153" y1="4.30287" x2="16.4838" y2= "4.30287" />
 </g>
</svg>
